<svg width="512" height="512" viewBox="0 0 512 512" fill="none" xmlns="http://www.w3.org/2000/svg">
  <defs>
    <linearGradient id="flashGradient" x1="0%" y1="0%" x2="100%" y2="100%">
      <stop offset="0%" style="stop-color:#FFD54F;stop-opacity:1" />
      <stop offset="100%" style="stop-color:#FFC107;stop-opacity:1" />
    </linearGradient>
    <linearGradient id="inboxGradient" x1="0%" y1="0%" x2="0%" y2="100%">
      <stop offset="0%" style="stop-color:#4F90CD;stop-opacity:1" />
      <stop offset="100%" style="stop-color:#006688;stop-opacity:1" />
    </linearGradient>
      <filter id="softDropShadow" x="-20%" y="-20%" width="140%" height="140%">
      <feGaussianBlur in="SourceAlpha" stdDeviation="8" />
      <feOffset dx="4" dy="8" result="offsetblur" />
      <feComponentTransfer>
        <feFuncA type="linear" slope="0.3" />
      </feComponentTransfer>
      <feMerge>
        <feMergeNode />
        <feMergeNode in="SourceGraphic" />
      </feMerge>
    </filter>
  </defs>

  <g filter="url(#softDropShadow)">
    <path d="M432 160H80C57.9 160 40 177.9 40 200V408C40 430.1 57.9 448 80 448H432C454.1 448 472 430.1 472 408V200C472 177.9 454.1 160 432 160Z" fill="url(#inboxGradient)"/>
    
    <path d="M40 200L256 336L472 200V408C472 430.1 454.1 448 432 448H80C57.9 448 40 430.1 40 408V200Z" fill="#004C66" opacity="0.3"/>

    <path d="M216 48L160 192H248L192 368L368 160H280L336 48H216Z" fill="url(#flashGradient)" stroke="#FFFFFF" stroke-width="8" stroke-linejoin="round"/>
  </g>
</svg>