<svg width="512" height="512" viewBox="0 0 512 512" fill="none" xmlns="http://www.w3.org/2000/svg">
  <defs>
    <linearGradient id="fruitBoltGradient" x1="0%" y1="0%" x2="100%" y2="100%">
      <stop offset="0%" style="stop-color:#FFF720;stop-opacity:1" /> <stop offset="100%" style="stop-color:#FFC837;stop-opacity:1" /> </linearGradient>

    <linearGradient id="fruitBoxGradient" x1="0%" y1="0%" x2="100%" y2="100%">
      <stop offset="0%" style="stop-color:#FF9A9E;stop-opacity:1" /> <stop offset="100%" style="stop-color:#FECFEF;stop-opacity:1" /> </linearGradient>
    
    <filter id="softDropShadow" x="-50%" y="-50%" width="200%" height="200%">
      <feGaussianBlur in="SourceAlpha" stdDeviation="16" /> <feOffset dx="0" dy="12" result="offsetblur" /> <feComponentTransfer>
        <feFuncA type="linear" slope="0.2" /> </feComponentTransfer>
      <feMerge>
        <feMergeNode />
        <feMergeNode in="SourceGraphic" />
      </feMerge>
    </filter>
  </defs>

  <g filter="url(#softDropShadow)">
    <path d="M432 160H80C57.9 160 40 177.9 40 200V408C40 430.1 57.9 448 80 448H432C454.1 448 472 430.1 472 408V200C472 177.9 454.1 160 432 160Z" fill="url(#fruitBoxGradient)"/>
    
    <path d="M40 200L256 336L472 200V408C472 430.1 454.1 448 432 448H80C57.9 448 40 430.1 40 408V200Z" fill="#D93025" opacity="0.1"/>

    <path d="M216 48L160 192H248L192 368L368 160H280L336 48H216Z" fill="url(#fruitBoltGradient)" stroke="#FFFFFF" stroke-width="12" stroke-linejoin="round" stroke-linecap="round"/>
  </g>
</svg>